<svg height="512pt" viewBox="0 0 512 512" width="512pt" xmlns="http://www.w3.org/2000/svg"><path d="m256 487 75 25h106l40-152-261-40zm0 0" fill="#434343"/><path d="m35 360 40 152h106l75-25v-167zm0 0" fill="#636363"/><path d="m216 200 40 160h221v-120zm0 0" fill="#242424"/><path d="m256 200-221 40v120h221zm0 0" fill="#434343"/><path d="m256 240h221v-120l-261-40zm0 0" fill="#434343"/><path d="m256 80-221 40v120h221zm0 0" fill="#636363"/><path d="m477 120-40-120h-181l-30 60 30 60zm0 0" fill="#242424"/><path d="m256 0h-181l-40 120h221zm0 0" fill="#434343"/><path d="m256 437-30 37.5 30 37.5h75c0-41.355469-33.644531-75-75-75zm0 0" fill="#242424"/><path d="m181 512h75v-75c-41.355469 0-75 33.644531-75 75zm0 0" fill="#434343"/><path d="m0 0h75v512h-75zm0 0" fill="#828282"/><path d="m437 0h75v512h-75zm0 0" fill="#636363"/><g fill="#18e0ff"><path d="m362 45h30v30h-30zm0 0"/><path d="m362 285h30v30h-30zm0 0"/><path d="m362 165h30v30h-30zm0 0"/></g></svg>